<svg xmlns="http://www.w3.org/2000/svg" viewBox="0 0 24 24">
  <defs>
    <radialGradient id="apex" cx="0.35" cy="0.3" r="0.85">
      <stop offset="0%" stop-color="#99f6e4"/>
      <stop offset="55%" stop-color="#2dd4bf"/>
      <stop offset="100%" stop-color="#0d9488"/>
    </radialGradient>
    <radialGradient id="bl" cx="0.35" cy="0.3" r="0.85">
      <stop offset="0%" stop-color="#c7d2fe"/>
      <stop offset="55%" stop-color="#818cf8"/>
      <stop offset="100%" stop-color="#4f46e5"/>
    </radialGradient>
    <radialGradient id="br" cx="0.35" cy="0.3" r="0.85">
      <stop offset="0%" stop-color="#fde68a"/>
      <stop offset="55%" stop-color="#fbbf24"/>
      <stop offset="100%" stop-color="#d97706"/>
    </radialGradient>
  </defs>
  <g transform="rotate(25 12 12)">
    <path d="M 12,6.4 Q 15.9,9.75 16.85,14.8" fill="none" stroke="#4338ca" stroke-width="2.5" stroke-linecap="round"/>
    <path d="M 16.85,14.8 Q 12,16.5 7.15,14.8" fill="none" stroke="#4338ca" stroke-width="2.5" stroke-linecap="round"/>
    <path d="M 7.15,14.8 Q 8.1,9.75 12,6.4" fill="none" stroke="#4338ca" stroke-width="2.5" stroke-linecap="round"/>
    <circle cx="12" cy="6.4" r="3.6" fill="url(#apex)" stroke="#0f766e" stroke-width="0.5"/>
    <circle cx="7.15" cy="14.8" r="3.6" fill="url(#bl)" stroke="#4338ca" stroke-width="0.5"/>
    <circle cx="16.85" cy="14.8" r="3.6" fill="url(#br)" stroke="#b45309" stroke-width="0.5"/>
  </g>
  <polygon points="4,2.2 4.21,3.29 5.3,3.5 4.21,3.71 4,4.8 3.79,3.71 2.7,3.5 3.79,3.29" fill="#fde047"/>
  <polygon points="21,21.15 21.13,21.87 21.85,22 21.13,22.13 21,22.85 20.87,22.13 20.15,22 20.87,21.87" fill="#fde047"/>
</svg>
